<svg width="30" height="26" viewBox="0 0 30 26" fill="none" xmlns="http://www.w3.org/2000/svg">
<path d="M0.833344 8.75H27.75C28.1257 8.75 28.4861 8.89926 28.7517 9.16493C29.0174 9.43061 29.1667 9.79094 29.1667 10.1667V24.3333C29.1667 24.7091 29.0174 25.0694 28.7517 25.3351C28.4861 25.6007 28.1257 25.75 27.75 25.75H2.25001C1.87429 25.75 1.51395 25.6007 1.24828 25.3351C0.982599 25.0694 0.833344 24.7091 0.833344 24.3333V8.75ZM2.25001 0.25H23.5V5.91667H0.833344V1.66667C0.833344 1.29094 0.982599 0.930609 1.24828 0.664932C1.51395 0.399255 1.87429 0.25 2.25001 0.25V0.25ZM19.25 15.8333V18.6667H23.5V15.8333H19.25Z" fill="#CCCEDC"/>
</svg>
